<?xml version="1.0" ?><!DOCTYPE svg  PUBLIC '-//W3C//DTD SVG 1.1//EN'  'http://www.w3.org/Graphics/SVG/1.1/DTD/svg11.dtd'><svg enable-background="new 0 0 24 24" height="24px" id="Layer_1" version="1.1" viewBox="0 0 24 24" width="24px" xml:space="preserve" xmlns="http://www.w3.org/2000/svg" xmlns:xlink="http://www.w3.org/1999/xlink"><g id="icon"><circle cx="12" cy="12" fill="#D83232" r="11"/><path d="M14.8571,16.3124L14.8571,16.3124c0,0,0.0013,-0.0041,0.0029,-0.0085c1.5821,-0.981,2.64,-2.7708,2.64,-4.9153c0,-4.1314,-2.6755,-5.5989,-5.4723,-5.5989c-2.6396,0,-5.508,2.0738,-5.508,5.6785c0,4.1314,2.6749,5.6466,5.4731,5.6466c0.4398,0,0.8672,-0.0527,1.2775,-0.1506c0,0,0.0061,0.002,0.01,0.0026c1.1024,1.9697,2.7442,1.493,3.1678,1.3378c0,0,-0.0568,-0.3467,-0.1563,-0.9919C15.4997,17.2926,15.1468,16.8951,14.8571,16.3124zM14.0681,14.7546c-1.0827,-1.397,-2.4877,-1.0622,-2.8246,-0.9105c0,0,0.043,0.3204,0.1321,0.9028c0.7432,-0.0002,1.1112,0.3851,1.3683,0.8829c-0.0024,0.0054,-0.0039,0.0118,-0.0039,0.0118h0c-0.2506,0.0616,-0.504,0.0857,-0.749,0.0857c-1.3021,0,-2.8615,-0.5623,-2.8615,-4.0719c0,-3.5088,1.6331,-4.4777,2.9353,-4.4777c1.3019,0,2.816,0.835,2.816,4.3442c0,1.5907,-0.3236,2.6023,-0.7996,3.2341C14.0768,14.7561,14.0724,14.7557,14.0681,14.7546z" fill="#FFFFFF"/><path d="M4.2218,19.7782C6.2124,21.7688,8.9624,23,12,23c6.0751,0,11,-4.9249,11,-11c0,-3.0376,-1.2312,-5.7876,-3.2218,-7.7782L4.2218,19.7782z" fill="#231F20" opacity="0.1"/></g></svg>